<svg xmlns="http://www.w3.org/2000/svg" xmlns:xlink="http://www.w3.org/1999/xlink" width="100" zoomAndPan="magnify" viewBox="0 0 75 74.999997" height="100" preserveAspectRatio="xMidYMid meet" version="1.0"><defs><clipPath id="03ed5fa47c"><path d="M 14.648438 1.246094 L 37 1.246094 L 37 62 L 14.648438 62 Z M 14.648438 1.246094 " clip-rule="nonzero"/></clipPath><clipPath id="cf6a78bf5c"><path d="M 39 13 L 61 13 L 61 73.996094 L 39 73.996094 Z M 39 13 " clip-rule="nonzero"/></clipPath><clipPath id="33b34b7994"><path d="M 68 3 L 72.398438 3 L 72.398438 8 L 68 8 Z M 68 3 " clip-rule="nonzero"/></clipPath></defs><g clip-path="url(#03ed5fa47c)"><path fill="#ffffff" d="M 14.667969 35.367188 L 14.667969 27.792969 C 16.203125 27.707031 17.363281 27.476562 18.140625 27.097656 C 18.917969 26.71875 19.59375 26.082031 20.160156 25.1875 C 20.730469 24.292969 21.117188 23.171875 21.328125 21.828125 C 21.496094 20.816406 21.582031 19.058594 21.582031 16.554688 C 21.582031 12.472656 21.769531 9.625 22.148438 8.015625 C 22.527344 6.40625 23.210938 5.113281 24.199219 4.132812 C 25.191406 3.15625 26.632812 2.382812 28.523438 1.816406 C 29.808594 1.4375 31.828125 1.246094 34.585938 1.246094 L 36.257812 1.246094 L 36.257812 8.789062 C 33.921875 8.789062 32.421875 8.921875 31.761719 9.183594 C 31.097656 9.449219 30.609375 9.847656 30.292969 10.382812 C 29.976562 10.921875 29.820312 11.839844 29.820312 13.144531 C 29.820312 14.472656 29.722656 16.988281 29.535156 20.691406 C 29.429688 22.773438 29.15625 24.460938 28.714844 25.757812 C 28.273438 27.050781 27.710938 28.117188 27.027344 28.960938 C 26.339844 29.800781 25.292969 30.675781 23.886719 31.578125 C 25.125 32.296875 26.140625 33.132812 26.929688 34.089844 C 27.71875 35.046875 28.324219 36.207031 28.746094 37.578125 C 29.167969 38.945312 29.441406 40.777344 29.566406 43.070312 C 29.714844 46.5625 29.789062 48.792969 29.789062 49.761719 C 29.789062 51.148438 29.957031 52.117188 30.292969 52.664062 C 30.628906 53.210938 31.140625 53.628906 31.824219 53.910156 C 32.507812 54.195312 33.984375 54.335938 36.257812 54.335938 L 36.257812 61.914062 L 34.585938 61.914062 C 31.746094 61.914062 29.566406 61.6875 28.050781 61.234375 C 26.535156 60.78125 25.257812 60.027344 24.214844 58.976562 C 23.175781 57.925781 22.476562 56.625 22.117188 55.078125 C 21.757812 53.53125 21.582031 51.097656 21.582031 47.773438 C 21.582031 43.902344 21.414062 41.386719 21.074219 40.226562 C 20.613281 38.542969 19.914062 37.339844 18.976562 36.613281 C 18.039062 35.886719 16.605469 35.472656 14.667969 35.367188 " fill-opacity="1" fill-rule="nonzero"/></g><path fill="#eeb30d" d="M 62.554688 16.960938 L 57.613281 16.960938 L 57.613281 12.023438 L 62.554688 12.023438 L 62.554688 16.960938 " fill-opacity="1" fill-rule="nonzero"/><path fill="#eeb30d" d="M 61.386719 26.84375 L 57.613281 26.84375 L 57.613281 23.066406 L 61.386719 23.066406 L 61.386719 26.84375 " fill-opacity="1" fill-rule="nonzero"/><g clip-path="url(#cf6a78bf5c)"><path fill="#eeb30d" d="M 47.015625 20.738281 L 47.015625 16.960938 L 50.789062 16.960938 L 50.789062 20.738281 Z M 56.617188 38.382812 C 55.671875 37.65625 54.964844 36.453125 54.503906 34.769531 C 54.246094 33.820312 54.097656 32 54.046875 29.3125 L 50.789062 29.3125 L 50.789062 24.371094 L 53.976562 24.371094 C 53.894531 22.46875 53.730469 20.984375 53.476562 19.917969 C 53.109375 18.371094 52.410156 17.066406 51.378906 16.003906 C 50.347656 14.941406 49.074219 14.191406 47.558594 13.746094 C 46.042969 13.304688 43.867188 13.085938 41.023438 13.085938 L 39.351562 13.085938 L 39.351562 20.628906 C 41.730469 20.628906 43.261719 20.769531 43.945312 21.054688 C 44.628906 21.339844 45.101562 21.746094 45.363281 22.269531 C 45.628906 22.796875 45.769531 23.847656 45.789062 25.425781 C 45.894531 30.433594 46.0625 33.675781 46.296875 35.148438 C 46.652344 37.296875 47.328125 39.0625 48.316406 40.449219 C 49.03125 41.417969 50.167969 42.410156 51.726562 43.417969 C 50.523438 44.113281 49.539062 44.917969 48.773438 45.832031 C 48.003906 46.75 47.390625 47.863281 46.925781 49.179688 C 46.464844 50.492188 46.179688 52.246094 46.074219 54.433594 C 45.90625 58.054688 45.816406 60.503906 45.808594 61.789062 C 45.796875 63.070312 45.628906 63.980469 45.300781 64.519531 C 44.976562 65.054688 44.464844 65.464844 43.769531 65.75 C 43.074219 66.035156 41.601562 66.175781 39.351562 66.175781 L 39.351562 73.75 L 41.023438 73.75 C 43.78125 73.75 45.800781 73.5625 47.085938 73.183594 C 49 72.613281 50.449219 71.84375 51.441406 70.863281 C 52.429688 69.886719 53.109375 68.585938 53.476562 66.964844 C 53.84375 65.34375 54.027344 62.492188 54.027344 58.410156 C 54.027344 55.929688 54.113281 54.183594 54.28125 53.171875 C 54.511719 51.824219 54.90625 50.703125 55.464844 49.808594 C 56.023438 48.914062 56.691406 48.277344 57.46875 47.902344 C 58.246094 47.519531 59.40625 47.289062 60.941406 47.207031 L 60.941406 39.628906 C 59.003906 39.523438 57.5625 39.109375 56.617188 38.382812 " fill-opacity="1" fill-rule="nonzero"/></g><g clip-path="url(#33b34b7994)"><path fill="#eeb30d" d="M 72.1875 7.367188 L 68.414062 7.367188 L 68.414062 3.59375 L 72.1875 3.59375 L 72.1875 7.367188 " fill-opacity="1" fill-rule="nonzero"/></g><path fill="#eeb30d" d="M 53.261719 12.023438 L 46.214844 12.023438 L 46.214844 4.976562 L 53.261719 4.976562 L 53.261719 12.023438 " fill-opacity="1" fill-rule="nonzero"/></svg>